<?xml version="1.0" standalone="no"?>
<!DOCTYPE svg PUBLIC "-//W3C//DTD SVG 20010904//EN"
 "http://www.w3.org/TR/2001/REC-SVG-20010904/DTD/svg10.dtd">
<svg version="1.0" xmlns="http://www.w3.org/2000/svg"
 width="110.000000pt" height="110.000000pt" viewBox="0 0 110.000000 110.000000"
 preserveAspectRatio="xMidYMid meet">

<g transform="translate(0.000000,110.000000) scale(0.100000,-0.100000)"
fill="#000000" stroke="none">
<path d="M0 550 l0 -550 550 0 550 0 0 374 0 374 -30 7 c-34 7 -170 -12 -170
-24 0 -5 18 -16 40 -26 82 -37 120 -108 106 -198 -10 -58 -30 -85 -80 -107
-37 -15 -44 -24 -50 -54 -7 -38 -15 -43 -34 -24 -9 9 -12 5 -12 -18 0 -42 -11
-49 -31 -22 -17 22 -18 22 -25 3 -4 -11 -13 -35 -21 -54 l-13 -34 -23 20 c-12
12 -41 30 -64 42 -52 26 -59 37 -39 60 26 28 31 26 -98 37 -54 5 -67 3 -64 -8
3 -7 14 -14 26 -16 19 -3 16 -9 -31 -52 -51 -47 -52 -48 -63 -27 -6 12 -14 50
-18 84 l-7 63 29 0 c55 0 92 46 107 131 7 48 29 68 44 40 6 -11 11 -29 11 -40
0 -91 101 -165 190 -141 55 15 70 38 84 130 8 46 20 86 27 91 8 5 37 9 64 9
67 1 41 16 -61 35 -98 19 -188 19 -250 0 -39 -12 -77 -14 -181 -9 -73 4 -133
7 -133 8 0 0 9 30 20 65 l19 64 -29 36 c-43 51 -38 64 13 36 23 -12 56 -25 72
-29 l30 -6 -25 18 c-42 29 -110 94 -110 105 0 5 8 3 18 -6 10 -9 40 -27 67
-39 47 -22 60 -23 243 -20 l193 3 29 -30 c17 -16 35 -32 42 -34 7 -3 0 -6 -17
-6 -28 -1 -28 -2 -10 -15 11 -8 55 -16 100 -18 44 -3 88 -8 98 -13 17 -7 18 3
17 164 l-2 171 -549 0 -549 0 0 -550z m419 54 c12 -11 8 -19 -29 -55 -48 -46
-60 -42 -60 23 0 55 47 72 89 32z m318 9 c4 -10 -2 -22 -18 -34 -32 -25 -37
-30 -54 -54 -7 -11 -16 -17 -20 -13 -14 14 -18 88 -5 103 18 21 89 20 97 -2z
m109 -129 c-10 -40 -45 -64 -90 -63 -25 1 -31 3 -16 6 59 9 70 15 85 43 8 16
16 44 16 62 2 32 2 32 6 4 3 -15 2 -39 -1 -52z m-336 11 c0 -29 -47 -65 -82
-64 l-33 1 32 8 c39 9 60 25 68 51 8 23 15 25 15 4z m121 -321 c15 -9 10 -32
-8 -37 -10 -3 -35 -8 -55 -12 l-38 -6 0 37 0 37 46 -7 c25 -3 50 -8 55 -12z"/>
</g>
</svg>
